<svg width="500" height="500" viewBox="0 0 500 500" fill="none" xmlns="http://www.w3.org/2000/svg">
<rect width="500" height="500" rx="97" fill="#3354F4" fill-opacity="0.92"/>
<path d="M60.2252 288V214.5H95.6102C102.47 214.5 108.385 215.62 113.355 217.86C118.395 220.1 122.28 223.32 125.01 227.52C127.74 231.65 129.105 236.55 129.105 242.22C129.105 247.89 127.74 252.79 125.01 256.92C122.28 261.05 118.395 264.27 113.355 266.58C108.385 268.82 102.47 269.94 95.6102 269.94H73.9802L85.0052 259.335V288H60.2252ZM85.0052 262.065L73.9802 250.83H94.0352C97.4652 250.83 99.9852 250.06 101.595 248.52C103.275 246.98 104.115 244.88 104.115 242.22C104.115 239.56 103.275 237.46 101.595 235.92C99.9852 234.38 97.4652 233.61 94.0352 233.61H73.9802L85.0052 222.375V262.065ZM137.522 288V210.09H161.252V288H137.522ZM206.526 288V277.815L204.846 275.085V255.765C204.846 252.965 203.971 250.83 202.221 249.36C200.541 247.89 197.776 247.155 193.926 247.155C191.336 247.155 188.711 247.575 186.051 248.415C183.391 249.185 181.116 250.27 179.226 251.67L171.666 236.025C175.026 233.925 179.051 232.315 183.741 231.195C188.431 230.075 193.016 229.515 197.496 229.515C207.366 229.515 214.996 231.72 220.386 236.13C225.846 240.54 228.576 247.54 228.576 257.13V288H206.526ZM190.251 289.05C185.561 289.05 181.641 288.245 178.491 286.635C175.341 285.025 172.961 282.89 171.351 280.23C169.741 277.5 168.936 274.49 168.936 271.2C168.936 267.49 169.881 264.34 171.771 261.75C173.661 259.16 176.531 257.2 180.381 255.87C184.301 254.54 189.236 253.875 195.186 253.875H207.156V265.32H198.966C196.446 265.32 194.591 265.74 193.401 266.58C192.281 267.35 191.721 268.54 191.721 270.15C191.721 271.48 192.211 272.6 193.191 273.51C194.241 274.35 195.641 274.77 197.391 274.77C199.001 274.77 200.471 274.35 201.801 273.51C203.201 272.6 204.216 271.2 204.846 269.31L207.891 276.345C206.981 280.615 205.056 283.8 202.116 285.9C199.176 288 195.221 289.05 190.251 289.05ZM270.726 289.05C264.146 289.05 258.301 287.79 253.191 285.27C248.081 282.75 244.056 279.25 241.116 274.77C238.246 270.22 236.811 265.04 236.811 259.23C236.811 253.42 238.246 248.275 241.116 243.795C244.056 239.315 248.081 235.815 253.191 233.295C258.301 230.775 264.146 229.515 270.726 229.515C277.726 229.515 283.711 231.02 288.681 234.03C293.651 237.04 297.081 241.205 298.971 246.525L280.596 255.555C279.406 252.895 277.936 250.97 276.186 249.78C274.506 248.59 272.651 247.995 270.621 247.995C268.871 247.995 267.226 248.415 265.686 249.255C264.216 250.095 263.026 251.355 262.116 253.035C261.276 254.645 260.856 256.71 260.856 259.23C260.856 261.75 261.276 263.85 262.116 265.53C263.026 267.21 264.216 268.47 265.686 269.31C267.226 270.15 268.871 270.57 270.621 270.57C272.651 270.57 274.506 269.975 276.186 268.785C277.936 267.595 279.406 265.67 280.596 263.01L298.971 272.04C297.081 277.36 293.651 281.525 288.681 284.535C283.711 287.545 277.726 289.05 270.726 289.05ZM304.456 288V230.565H328.186V288H304.456ZM316.321 225.945C311.981 225.945 308.516 224.79 305.926 222.48C303.336 220.17 302.041 217.3 302.041 213.87C302.041 210.44 303.336 207.57 305.926 205.26C308.516 202.95 311.981 201.795 316.321 201.795C320.661 201.795 324.126 202.88 326.716 205.05C329.306 207.22 330.601 210.02 330.601 213.45C330.601 217.09 329.306 220.1 326.716 222.48C324.126 224.79 320.661 225.945 316.321 225.945ZM341.329 288V233.4C341.329 225.98 343.534 220.065 347.944 215.655C352.424 211.245 358.759 209.04 366.949 209.04C369.469 209.04 371.989 209.285 374.509 209.775C377.099 210.195 379.269 210.895 381.019 211.875L375.349 228.36C374.579 228.01 373.739 227.695 372.829 227.415C371.919 227.135 370.974 226.995 369.994 226.995C368.314 226.995 366.949 227.52 365.899 228.57C364.849 229.62 364.324 231.3 364.324 233.61V236.34L365.059 246.105V288H341.329ZM333.454 251.04V233.715H376.819V251.04H333.454ZM397.037 309.42C393.887 309.42 390.667 308.93 387.377 307.95C384.157 307.04 381.567 305.815 379.607 304.275L387.482 288C388.672 288.91 390.002 289.645 391.472 290.205C393.012 290.765 394.482 291.045 395.882 291.045C397.982 291.045 399.592 290.59 400.712 289.68C401.832 288.84 402.742 287.545 403.442 285.795L405.857 279.705L407.537 277.395L425.912 230.565H448.382L424.757 289.155C422.657 294.405 420.207 298.5 417.407 301.44C414.677 304.38 411.597 306.445 408.167 307.635C404.807 308.825 401.097 309.42 397.037 309.42ZM402.602 290.625L377.612 230.565H401.972L419.192 275.295L402.602 290.625Z" fill="white"/>
</svg>
